<?xml version="1.0" standalone="no"?>
<svg viewBox="0 0 200 200" xmlns="http://www.w3.org/2000/svg">
  <path fill="#1268F9" d="M43.2,-65.2C57.4,-66.7,71.2,-57.9,70.7,-45.3C70.3,-32.7,55.5,-16.4,49.3,-3.6C43.1,9.2,45.4,18.4,44.7,28.8C43.9,39.2,40,50.9,32,56.9C24.1,62.9,12,63.2,-0.5,64.1C-13,64.9,-26,66.3,-32.3,59.3C-38.5,52.3,-37.9,36.9,-39.4,25.6C-40.9,14.3,-44.5,7.2,-44.1,0.2C-43.8,-6.7,-39.4,-13.5,-36.9,-23C-34.3,-32.5,-33.7,-44.8,-27.8,-48.2C-22,-51.5,-11,-45.9,1.8,-48.9C14.5,-52,29.1,-63.7,43.2,-65.2Z" transform="translate(100 100)" />
</svg>
