<svg id="visual" viewBox="0 0 1920 1280" width="1920" height="1280" xmlns="http://www.w3.org/2000/svg" xmlns:xlink="http://www.w3.org/1999/xlink" version="1.1"><g transform="translate(934.9374343241429 727.826416229256)"><path d="M390.1 -506C516.9 -444.8 638.9 -346 604.8 -245.1C570.6 -144.2 380.4 -41.2 316.7 86.8C253 214.9 315.8 367.9 284.1 393.8C252.4 419.7 126.2 318.3 12.4 301.2C-101.3 284.1 -202.6 351.2 -260.6 333.9C-318.6 316.5 -333.4 214.8 -397 108C-460.6 1.1 -573.2 -110.8 -559.3 -190.5C-545.5 -270.2 -405.3 -317.5 -291 -382.7C-176.7 -447.9 -88.4 -531 21.7 -560.8C131.7 -590.6 263.3 -567.1 390.1 -506" fill="#03A9F4"></path></g></svg>